# xmcd
#
# Track frame offsets: 
#        150
#        21530
#        37922
#        57840
#        77530
#        96960
#        125790
#        138905
#        159057
#        177777
#        196577
#        217905
#        237600
#        258397
#
# Disc length: 3682 seconds
#
# Revision: 18
# Processed by: cddbd v1.5.2PL0 Copyright (c) Steve Scherf et al.
# Submitted via: ExactAudioCopyFreeDBPlugin 1.0
#
DISCID=b40e600e
DTITLE=Chayanne - Grandes Exitos
DYEAR=2002
DGENRE=Latin
TTITLE0=Y Tu Te Vas
TTITLE1=Torero
TTITLE2=Quisiera Ser
TTITLE3=Salome (Club Mix)(Radio Edit)(from "Atado A Tu Amor", 1998)
TTITLE4=Completamente Enamorados (from "Tiempo De Vals", 1990)
TTITLE5=Fiesta En America (Extended Rock Re-Recording)(from "Chayanne"
TTITLE5=, 1987)
TTITLE6=Tu Pirata Soy Yo (from "Chayanne II", 1988)
TTITLE7=Este Ritmo Se Baila Asi (Sye Bwa)(from "Chayanne II", 1988)
TTITLE8=Tiempo De Vals (from "Tiempo De Vals", 1990)
TTITLE9=Provócame (from "Provócame", 1992)
TTITLE10=Dejaria Todo (from "Atado A Tu Amor", 1998)
TTITLE11=Baila Baila (Meme's Boriqua Radio Edit)(from "Volver A Nacer"
TTITLE11=, 1996)
TTITLE12=Tal Vez Es Amor (Talvez Seja Amor)(from "Volver A Nacer", 199
TTITLE12=6)
TTITLE13=Candela (from "Simplemente", 2000)
EXTD=YEAR: 2002
EXTT0=
EXTT1=
EXTT2=
EXTT3=
EXTT4=
EXTT5=
EXTT6=
EXTT7=
EXTT8=
EXTT9=
EXTT10=
EXTT11=
EXTT12=
EXTT13=
PLAYORDER=
